<?xml version="1.0" encoding="UTF-8"?><svg viewBox="0 0 9 14" version="1.1" xmlns="http://www.w3.org/2000/svg" xmlns:xlink="http://www.w3.org/1999/xlink"><!--Generator: Sketch 51 (57462) - http://www.bohemiancoding.com/sketch--><defs><path d="M7.5 11.727c-.386 0-.623-.155-.935-.487L1.178 5.494a.917.917 0 0 1 0-1.238.785.785 0 0 1 1.16 0L7.5 9.763l5.162-5.507a.785.785 0 0 1 1.16 0c.32.342.32.896 0 1.238l-5.368 5.725c-.318.34-.568.508-.954.508Z" id="a"/></defs><g transform="translate(-1283 -608)" stroke="none" stroke-width="1" fill="none" fill-rule="evenodd"><rect fill="#none" x="0" y="0" width="1366" height="829"/><g transform="matrix(-1 0 0 1 1295 607)"><rect x="0" y="0" width="15" height="16"/><mask id="b" fill="white"><use xlink:href="#a"/></mask><g mask="url(#b)" fill="#333333"><polygon points="0 0 169 0 169 130 0 130" transform="translate(-76.875 -57)"/></g></g></g></svg>