<?xml version="1.0" encoding="UTF-8"?><svg viewBox="0 0 16 14" version="1.1" xmlns="http://www.w3.org/2000/svg" xmlns:xlink="http://www.w3.org/1999/xlink"><!--Generator: Sketch 51 (57462) - http://www.bohemiancoding.com/sketch--><defs><path d="M0 3.326a.995.995 0 0 1 1-.993h14c.552 0 1 .44 1 .993v.681A.995.995 0 0 1 15 5H1c-.552 0-1-.44-1-.993v-.68ZM0 8.66a.995.995 0 0 1 1-.993h14c.552 0 1 .44 1 .993v.68a.995.995 0 0 1-1 .993H1c-.552 0-1-.44-1-.993v-.68Zm0 5.333A.995.995 0 0 1 1 13h14c.552 0 1 .44 1 .993v.68a.995.995 0 0 1-1 .994H1c-.552 0-1-.44-1-.993v-.681Z" id="a"/></defs><use fill="#333333" xlink:href="#a" transform="translate(0 -2)" stroke="none" stroke-width="1" fill-rule="evenodd"/></svg>